<svg width="56" height="56" viewBox="0 0 56 56" fill="none" xmlns="http://www.w3.org/2000/svg">
<g clip-path="url(#clip0_62_8928)">
<path d="M48.02 16.03L27.3467 36.7033C26.1567 37.8933 24.57 38.5466 22.8667 38.5466C21.1633 38.5466 19.5767 37.8933 18.3867 36.7033L10.8733 29.19C10.4067 28.7233 10.4067 27.9533 10.8733 27.4866C11.34 27.02 12.11 27.02 12.5767 27.4866L12.95 27.86L20.09 35C21.6067 36.5166 24.1033 36.5166 25.62 35L44.87 15.75L46.62 14C42.35 8.35331 35.5833 4.68998 27.9767 4.68998C15.1433 4.66665 4.66666 15.1433 4.66666 28C4.66666 40.8566 15.1433 51.3333 28 51.3333C40.8567 51.3333 51.3333 40.8566 51.3333 28C51.3333 23.6133 50.12 19.53 48.02 16.03Z" fill="#ED20D0"/>
</g>
<defs>
<clipPath id="clip0_62_8928">
<rect width="56" height="56" fill="white"/>
</clipPath>
</defs>
</svg>
