<svg width="56" height="56" viewBox="0 0 56 56" fill="none" xmlns="http://www.w3.org/2000/svg">
<g clip-path="url(#clip0_62_7480)">
<path d="M39.1533 9.33339C35 9.33339 31.7567 11.9934 29.1667 14.6067C29.0967 14.6767 29.0267 14.7234 28.9567 14.7934L23.3567 20.3934C19.3667 24.3834 16.6833 29.4701 15.6333 34.9301C15.4933 35.6301 15.4 36.3301 15.3067 37.0534C15.3067 37.1001 15.3067 37.1467 15.3533 37.1934L24.01 45.0801C25.0833 46.1067 26.5067 46.6667 28.0233 46.6667C29.54 46.6667 30.94 46.1067 32.0133 45.0801L46.5267 31.8501C49.4667 29.4234 51.17 25.8067 51.17 21.9101C51.17 14.9801 45.7567 9.31006 39.13 9.31006L39.1533 9.33339Z" fill="#ED20D0"/>
<path d="M21.6067 18.6901L26.1333 14.1401C26.1333 14.1401 26.2033 13.9767 26.1333 13.9067C23.66 11.5501 20.6267 9.33341 16.8467 9.33341C10.1967 9.33341 4.80666 14.9801 4.80666 21.9334C4.80666 25.8301 6.48666 29.4467 9.45 31.8501C9.45 31.8501 9.45 31.8501 9.45 31.8734L12.81 34.9534C12.9033 35.0467 13.0433 34.9767 13.0667 34.8601C13.5333 32.2234 14.35 29.6567 15.5167 27.2067C17.0333 24.0334 19.04 21.1634 21.5367 18.6667L21.6067 18.6901Z" fill="#ED20D0"/>
</g>
<defs>
<clipPath id="clip0_62_7480">
<rect width="56" height="56" fill="white"/>
</clipPath>
</defs>
</svg>
