<svg width="56" height="56" viewBox="0 0 56 56" fill="none" xmlns="http://www.w3.org/2000/svg">
<g clip-path="url(#clip0_60_7613)">
<path d="M46.6667 10.6868H24.5C21.9334 10.6868 19.8334 12.7868 19.8334 15.3534V18.2468H33.67C34.9767 18.2468 36.2134 18.7601 37.1467 19.6934C38.08 20.6268 38.5934 21.8401 38.5934 23.1701V27.5334H39.34C39.34 27.5334 39.4334 27.5334 39.48 27.5334C41.5334 27.5568 43.54 28.1168 45.3134 29.1668C47.0634 30.2168 48.5334 31.7101 49.56 33.4834L50.4934 35.1168C50.7267 35.5134 51.3334 35.3501 51.3334 34.9068V15.3534C51.3334 12.7868 49.2334 10.6868 46.6667 10.6868Z" fill="#ED20D0"/>
<path d="M34.4167 29.7268C32.9234 31.4768 31.22 33.0401 29.3534 34.4168C27.7434 35.6068 25.9934 36.6334 24.1734 37.4968H33.67C35.0467 37.4968 36.1434 36.4001 36.1434 35.0234V27.5334C36.05 27.6734 35.9334 27.8134 35.8167 27.9768C35.3734 28.5834 34.8834 29.1668 34.3934 29.7501L34.4167 29.7268Z" fill="#ED20D0"/>
<path d="M33.6234 26.8568C34.02 26.3434 34.3934 25.8068 34.7667 25.2701C35.28 24.5234 35.7467 23.7301 36.1667 22.9134C36.0734 21.6534 35 20.6501 33.6934 20.6501H7.14002C5.76335 20.6501 4.66669 21.7468 4.66669 23.1234V44.8701C4.66669 45.3368 5.27335 45.4768 5.50669 45.0801L6.44002 43.4468C7.46669 41.6734 8.93669 40.1801 10.6867 39.1301C12.3667 38.1268 14.28 37.5668 16.2167 37.4968C17.1034 37.3334 17.9667 37.1234 18.83 36.8901C24.6867 35.2334 29.89 31.6868 33.6 26.8568H33.6234Z" fill="#ED20D0"/>
</g>
<defs>
<clipPath id="clip0_60_7613">
<rect width="56" height="56" fill="white"/>
</clipPath>
</defs>
</svg>
