<svg width="56" height="56" viewBox="0 0 56 56" fill="none" xmlns="http://www.w3.org/2000/svg">
<g clip-path="url(#clip0_62_8200)">
<path d="M45.01 43.0033C45.01 45.57 42.91 47.67 40.3433 47.67H19.0633C19.0633 47.67 18.9233 47.74 18.8533 47.74C18.83 47.74 18.7833 47.74 18.76 47.74C19.2967 49.8166 21.1633 51.3566 23.4033 51.3566H45.15C47.7167 51.3566 49.8167 49.2566 49.8167 46.69V15.3066C49.8167 12.6466 47.67 10.5 45.01 10.5V43.0033Z" fill="white"/>
<path d="M22.4933 45.2666H39.2233C41.09 45.2666 42.6067 43.75 42.6067 41.8833V9.33329C42.6067 6.76663 40.5067 4.66663 37.94 4.66663H32.2V24.64C32.2 32.5033 28.63 39.97 22.4933 45.2666Z" fill="white"/>
<path d="M29.7967 24.64V4.66663H14C11.4333 4.66663 9.33334 6.76663 9.33334 9.33329V13.86H22.0967C22.75 13.86 23.2867 14.3966 23.2867 15.05C23.2867 15.7033 22.75 16.24 22.0967 16.24H9.33334V19.25H16.4733C17.1267 19.25 17.6633 19.7866 17.6633 20.44C17.6633 21.0933 17.1267 21.63 16.4733 21.63H9.33334V23.59H16.4733C17.1267 23.59 17.6633 24.1266 17.6633 24.78C17.6633 25.4333 17.1267 25.97 16.4733 25.97H9.33334V27.6266H16.4733C17.1267 27.6266 17.6633 28.1633 17.6633 28.8166C17.6633 29.47 17.1267 30.0066 16.4733 30.0066H9.33334V40.5066C9.33334 43.0733 11.4333 45.1733 14 45.1733H18.55C18.8533 44.9633 19.11 44.7533 19.39 44.5433C25.9233 39.69 29.7967 32.34 29.7967 24.5466V24.64Z" fill="white"/>
</g>
<defs>
<clipPath id="clip0_62_8200">
<rect width="56" height="56" fill="white"/>
</clipPath>
</defs>
</svg>
